<svg xmlns="http://www.w3.org/2000/svg" viewBox="0 0 1024 1024">
  <circle cx="660.01" cy="381.45" r="33.64" fill="#f5a800"/>
  <path fill="#f5a800" d="M750.18 534.43a452.91 452.91 0 00-11.94 94.43c-.11 22.74 6.12 39.96 5.34 62.73l8.08 94.21s-14.83 110.1-22.63 134.08c-3.47 10.66-24.17 9.84-24.17 9.84V783.97l-22.42-89.7h-11.21l-67.28 89.7-44.84 112.12s-16-4.81-16.86-15.99c-1.86-24.3 18.68-130.13 18.68-130.13l54.24-100.55 22.43-56.06.47-42.51a252.2 252.2 0 00-30.62-30.2c-10.35-7.96-21.44-9.14-47.22 4.32a246.28 246.28 0 01-79.61 23.54c-16.82 1.13-75.12 0-79.6 0a20.87 20.87 0 01-22.4-22.77s97.52.35 115.45-6.38c17.94-6.73 114.37-45.97 114.37-45.97l164.82-14.57 134.54 75.12L951 551.5s-5.07 22.8-33.1 13.83a372.14 372.14 0 01-65.88-28.36c-21.67-12.7-37.07-24.56-56.65-37.33a28.97 28.97 0 00-25.19-1.9 18.55 18.55 0 00-14.99 16.54c-1.5 6.08-3.47 13.5-5 20.15z"/>
  <path fill="#425cc7" stroke="#425cc7" stroke-miterlimit="10" stroke-width="23.52" d="M650.58 997.63a162.43 162.43 0 0076.7-.63l56.07-22.43 56.06-67.27a331.22 331.22 0 0033.64-67.28c11.2-33.64 22.42-40.36 31.4-40.36a49.03 49.03 0 0120.17 6.72s7.85 24.67 2.24 33.64c0 0-23.54 35.87-16.81 28.03a202.1 202.1 0 0129.15-4.48c8.97 0 41.48 4.48 44.85 26.9a43.3 43.3 0 0012.33 33.64c11.33 16.67 15.07 35.45 7.85 44.85-9.24 12.01-39.58 12.85-66.28-10.8l-15.85-10.5q-12.77-8.44-25.5-16.82s-25.8 15.7-58.31 38.12a196.88 196.88 0 01-91.88 37.46 179.68 179.68 0 01-71.4-5.02"/>
  <path fill="none" stroke="#000" stroke-linecap="round" stroke-linejoin="round" stroke-width="23.52" d="M332.62 898.33s26.91 14.58 103.15 31.4a2473.34 2473.34 0 00255.64 35.87M873.04 840.03s11.22-43.23 33.64-43.23a25.51 25.51 0 0114.99 5.76 29.6 29.6 0 017.03 31.38M859.29 954.72a55.25 55.25 0 0159.32-9M952.58 968.47s37 25.8 49.33 7.85c6.73-10.09 10.1-33.64-23.54-43.73M649.83 997.48a160.3 160.3 0 00108.12-12.75c41.48-28.03 70.25-99.85 171.16-111.07"/>
  <circle cx="660" cy="381.45" r="35.3" fill="none" stroke="#000" stroke-miterlimit="10" stroke-width="23.5"/>
  <path fill="none" stroke="#000" stroke-linecap="round" stroke-linejoin="round" stroke-width="23.52" d="M389.8 526.09h57.18a219.13 219.13 0 00100.91-28.03 266.76 266.76 0 0189.7-33.64 910.9 910.9 0 01100.9-5.6 160.77 160.77 0 0189.7 28.02 354.74 354.74 0 0072.88 44.85 3428.5 3428.5 0 0139.25 16.82"/>
  <path fill="none" stroke="#000" stroke-linecap="round" stroke-linejoin="round" stroke-width="23.52" d="M744.78 514.28s-12.37 93.27-11.68 117.97a249.45 249.45 0 006 45.2 1086.44 1086.44 0 016.32 128.94L732.5 907.3c-2.03 12.33-10.13 22.42-18.23 22.42s-15.2-10.09-15.2-22.42V806.4a205.9 205.9 0 00-5.05-43.74L683.9 716.7c-3.04-12.34-7.09-21.3-10.12-21.3-3.04 0-68.17 63.65-74.7 86.04-4.7 16.16-22.02 92.52-22.02 92.52-3.03 11.33-11.12 19.03-19.9 17.27-8.98-1.79-11.8-14.03-11.29-25.11a906.4 906.4 0 0111.65-98.03c7.65-22.7 54.53-95.08 54.53-95.08a179.35 179.35 0 0019.7-44.56 251.64 251.64 0 007.6-66.48 62.68 62.68 0 00-10.13-33.64 60.07 60.07 0 00-10.13-11.2M706.51 369.34s7.02-3.27 11.22.22c4.95 4.09 8.32 19.4 14.17 26.02a39.56 39.56 0 0022 13"/>
  <path fill="#f5a800" d="M734.97 253.84l74.14-26.31c-1.4.31-2.82.74-4.22.74-8.12 0 58.82-51.78 58.82-51.78L796.99 23.37s-82.83 25.48-78.05 19.59l-62.2 32.26c4.7-2.12 9.47 20.93 11.65 25.96l49 127.1c2.16 5.02 21.95 23.53 17.58 25.56z"/>
  <path fill="#425cc7" d="M406.95 372.45l75.75-28c-1.22.33 245.51-114.97 245.51-114.97L664.88 93.07s-234.53 97.08-230.74 95.15l33.25-16.9-103.43 51.56z"/>
  <path fill="#425cc7" d="M121.24 368.2l34.82 77.82s179.72-49.28 177.15-48.35l-22.64 8.2 106.94-37.4-48.32-148.2-79.62 42.31c4.7-1.97-168.33 105.62-168.33 105.62z"/>
  <path fill="none" stroke="#000" stroke-linecap="round" stroke-linejoin="round" stroke-miterlimit="10" stroke-width="39.58" d="M24.05 459.07l41.31-17.09"/>
  <path fill="none" stroke="#000" stroke-linecap="round" stroke-linejoin="round" stroke-miterlimit="10" stroke-width="39.5817" d="M734.19 55.44l62.74-32.07 70.85 162.49-62.94 22.56"/>
  <path fill="none" stroke="#000" stroke-linecap="round" stroke-linejoin="round" stroke-miterlimit="10" stroke-width="39.58" d="M361.96 208.7l69.89 226.34"/>
  <circle cx="431.85" cy="435.04" r="39.58"/>
  <path fill="none" stroke="#000" stroke-linecap="round" stroke-linejoin="round" stroke-miterlimit="10" stroke-width="39.5817" d="M326.5 379.02l-174.75 63.33-30.48-70.46 175.94-91.23M443.07 205.85L664.92 93.04l61.75 143.09-249.17 89.45"/>
</svg>
